<mxfile host="app.diagrams.net" modified="2023-09-03T03:41:16.321Z" agent="Mozilla/5.0 (Windows NT 10.0; Win64; x64; rv:109.0) Gecko/20100101 Firefox/117.0" version="21.6.8" etag="BMqZdDf1xjqI4Qr4nHEv" type="github">
  <diagram name="第 1 页" id="FHlO4WLwC0Ep455xvKzw">
    <mxGraphModel>
      <root>
        <mxCell id="0" />
        <mxCell id="1" parent="0" />
      </root>
    </mxGraphModel>
  </diagram>
</mxfile>
